<?xml version="1.0" encoding="iso-8859-1"?>
<!-- Generator: Adobe Illustrator 17.1.0, SVG Export Plug-In . SVG Version: 6.00 Build 0)  -->
<!DOCTYPE svg PUBLIC "-//W3C//DTD SVG 1.1//EN" "http://www.w3.org/Graphics/SVG/1.1/DTD/svg11.dtd">
<svg version="1.1" id="Capa_1" xmlns="http://www.w3.org/2000/svg" xmlns:xlink="http://www.w3.org/1999/xlink" x="0px" y="0px"
	 viewBox="0 0 372.658 372.658" style="enable-background:new 0 0 372.658 372.658;" xml:space="preserve">
<path d="M208.284,103.137v3.094c0,5.523-4.477,10-10,10s-10-4.477-10-10v-3.094c0-5.523,4.477-10,10-10
	S208.284,97.614,208.284,103.137z M162.498,93.137c-5.523,0-10,4.477-10,10v3.094c0,5.523,4.477,10,10,10s10-4.477,10-10v-3.094
	C172.498,97.614,168.021,93.137,162.498,93.137z M90.926,93.137c-5.523,0-10,4.477-10,10v3.094c0,5.523,4.477,10,10,10
	s10-4.477,10-10v-3.094C100.926,97.614,96.449,93.137,90.926,93.137z M126.712,93.137c-5.523,0-10,4.477-10,10v3.094
	c0,5.523,4.477,10,10,10s10-4.477,10-10v-3.094C136.712,97.614,132.235,93.137,126.712,93.137z M281.732,49.642
	c5.523,0,10-4.477,10-10v-3.094c0-5.523-4.477-10-10-10s-10,4.477-10,10v3.094C271.732,45.165,276.209,49.642,281.732,49.642z
	 M220.162,39.642v-3.094c0-5.523-4.477-10-10-10s-10,4.477-10,10v3.094c0,5.523,4.477,10,10,10S220.162,45.165,220.162,39.642z
	 M258.131,219.388c0.001,0.065,0.002,0.131,0.002,0.197v92.086c0,0.066,0,0.131-0.002,0.197v50.791c0,5.523-4.477,10-10,10H41.077
	c-5.523,0-10-4.477-10-10V169.234c0-5.523,4.477-10,10-10h19.372v-16.456h-7.762c-5.523,0-10-4.477-10-10V76.589
	c0-5.523,4.477-10,10-10h183.834c5.523,0,10,4.477,10,10v56.189c0,5.523-4.477,10-10,10h-7.762v16.456h19.372
	c5.523,0,10,4.477,10,10V219.388z M62.687,122.779h163.834V86.589H62.687V122.779z M238.131,321.67H51.077v30.988h187.054V321.67z
	 M238.131,229.584H51.077v72.086h187.054V229.584z M238.131,179.234h-19.372c-5.523,0-10-4.477-10-10v-26.456H80.449v26.456
	c0,5.523-4.477,10-10,10H51.077v30.35h187.054V179.234z M184.375,39.642v-3.094c0-5.523-4.477-10-10-10s-10,4.477-10,10v3.094
	c0,5.523,4.477,10,10,10S184.375,45.165,184.375,39.642z M245.946,49.642c5.523,0,10-4.477,10-10v-3.094c0-5.523-4.477-10-10-10
	s-10,4.477-10,10v3.094C235.946,45.165,240.423,49.642,245.946,49.642z M125.651,275.946h37.907c5.523,0,10-4.477,10-10
	s-4.477-10-10-10h-37.907c-5.523,0-10,4.477-10,10S120.128,275.946,125.651,275.946z M331.581,92.645h-19.372V76.19h7.76
	c5.523,0,10-4.477,10-10V10c0-5.523-4.477-10-10-10H136.137c-5.523,0-10,4.477-10,10v20.417c0,5.523,4.477,10,10,10s10-4.477,10-10
	V20h163.832v36.19h-37.726c-5.523,0-10,4.477-10,10s4.477,10,10,10h19.965v26.455c0,5.523,4.477,10,10,10h19.372v30.35H279.92
	c-5.523,0-10,4.477-10,10s4.477,10,10,10h41.661v72.086H279.92c-5.523,0-10,4.477-10,10s4.477,10,10,10h41.661v30.988h-39.386
	c-5.523,0-10,4.477-10,10s4.477,10,10,10h49.386c5.523,0,10-4.477,10-10V102.645C341.581,97.122,337.104,92.645,331.581,92.645z"/>
<g>
</g>
<g>
</g>
<g>
</g>
<g>
</g>
<g>
</g>
<g>
</g>
<g>
</g>
<g>
</g>
<g>
</g>
<g>
</g>
<g>
</g>
<g>
</g>
<g>
</g>
<g>
</g>
<g>
</g>
</svg>
