<?xml version="1.0" encoding="iso-8859-1"?>
<!-- Generator: Adobe Illustrator 19.0.0, SVG Export Plug-In . SVG Version: 6.00 Build 0)  -->
<svg version="1.1" id="Capa_1" xmlns="http://www.w3.org/2000/svg" xmlns:xlink="http://www.w3.org/1999/xlink" x="0px" y="0px"
	 viewBox="0 0 326.521 326.521" style="enable-background:new 0 0 326.521 326.521;" xml:space="preserve">
<path d="M289.398,133.908l37.123-37.123L229.736,0l-37.123,37.123l43.089,43.089l-11.196,11.196l-25.191-25.191L40.217,225.316
	l8.397,8.397l-22.981,22.981l16.794,16.794L0,315.915l10.606,10.606l42.427-42.427l16.794,16.794l22.981-22.981l8.397,8.397
	l159.099-159.099l-25.191-25.191l11.196-11.196L289.398,133.908z M69.827,279.675l-22.981-22.981L59.22,244.32l22.981,22.981
	L69.827,279.675z M225.268,141.028l-19.888-19.887l-10.606,10.606l19.888,19.887l-14.302,14.302l-19.887-19.887l-10.606,10.606
	l19.887,19.887l-14.302,14.302l-19.887-19.888l-10.606,10.606l19.887,19.888l-14.302,14.302l-19.888-19.887l-10.606,10.606
	l19.888,19.887l-14.302,14.302l-19.887-19.887L95.14,231.381l19.887,19.887l-13.823,13.823L61.43,225.316L199.315,87.431
	l39.775,39.775L225.268,141.028z M229.736,21.213l75.572,75.572l-15.91,15.91l-75.572-75.572L229.736,21.213z"/>
<g>
</g>
<g>
</g>
<g>
</g>
<g>
</g>
<g>
</g>
<g>
</g>
<g>
</g>
<g>
</g>
<g>
</g>
<g>
</g>
<g>
</g>
<g>
</g>
<g>
</g>
<g>
</g>
<g>
</g>
</svg>
