<?xml version="1.0" encoding="iso-8859-1"?>
<!-- Generator: Adobe Illustrator 18.0.0, SVG Export Plug-In . SVG Version: 6.00 Build 0)  -->
<!DOCTYPE svg PUBLIC "-//W3C//DTD SVG 1.1//EN" "http://www.w3.org/Graphics/SVG/1.1/DTD/svg11.dtd">
<svg version="1.1" id="Capa_1" xmlns="http://www.w3.org/2000/svg" xmlns:xlink="http://www.w3.org/1999/xlink" x="0px" y="0px"
	 viewBox="0 0 439.699 439.699" style="enable-background:new 0 0 439.699 439.699;" xml:space="preserve">
<g>
	<path d="M219.85,28.381c-48.963,0-88.797,39.834-88.797,88.796c0,48.963,39.834,88.797,88.797,88.797s88.797-39.834,88.797-88.797
		C308.647,68.215,268.813,28.381,219.85,28.381z M175.019,169.296l3.682-3.683c3.905-3.905,3.905-10.237,0-14.142
		c-3.906-3.905-10.238-3.905-14.143,0l-2.68,2.68c-5.133-8.019-8.655-17.159-10.091-26.974h4.137c5.522,0,10-4.477,10-10
		s-4.478-10-10-10h-4.137c1.684-11.511,6.222-22.107,12.881-31.038l2.907,2.908c1.953,1.953,4.512,2.929,7.071,2.929
		c2.559,0,5.118-0.976,7.07-2.929c3.906-3.905,3.906-10.237,0.001-14.142l-2.908-2.908c8.931-6.659,19.528-11.197,31.039-12.881
		v4.137c0,5.523,4.478,10,10,10s10-4.477,10-10v-4.137c11.511,1.684,22.107,6.222,31.038,12.881l-2.908,2.908
		c-3.905,3.905-3.905,10.237,0,14.143c1.953,1.953,4.512,2.929,7.071,2.929s5.118-0.976,7.071-2.929l2.908-2.908
		c6.659,8.931,11.197,19.527,12.881,31.038h-4.137c-5.522,0-10,4.477-10,10s4.478,10,10,10h4.137
		c-1.436,9.815-4.958,18.956-10.091,26.975l-2.681-2.681c-3.906-3.905-10.238-3.905-14.143,0c-3.905,3.905-3.905,10.237,0,14.142
		l3.683,3.683c-12.051,10.38-27.714,16.678-44.83,16.678C202.734,185.975,187.07,179.677,175.019,169.296z"/>
	<path d="M363.16,58.347h-41.947C300.249,22.203,261.958,0,219.85,0S139.45,22.203,118.487,58.347H76.538
		c-25.674,0-46.562,20.887-46.562,46.562v288.229c0,25.674,20.888,46.562,46.562,46.562H363.16
		c25.674,0,46.562-20.887,46.562-46.562V104.908C409.722,79.234,388.834,58.347,363.16,58.347z M389.722,393.137
		c0,14.646-11.915,26.562-26.562,26.562H76.538c-14.646,0-26.562-11.916-26.562-26.562V104.908
		c0-14.646,11.915-26.562,26.562-26.562h47.879c3.751,0,7.188-2.1,8.898-5.438C150.048,40.273,183.206,20,219.85,20
		s69.802,20.273,86.534,52.909c1.711,3.338,5.147,5.438,8.898,5.438h47.878c14.646,0,26.562,11.916,26.562,26.562V393.137z"/>
	<path d="M219.85,71.664c-5.522,0-10,4.477-10,10v35.514c0,5.523,4.478,10,10,10s10-4.477,10-10V81.664
		C229.85,76.141,225.372,71.664,219.85,71.664z"/>
</g>
<g>
</g>
<g>
</g>
<g>
</g>
<g>
</g>
<g>
</g>
<g>
</g>
<g>
</g>
<g>
</g>
<g>
</g>
<g>
</g>
<g>
</g>
<g>
</g>
<g>
</g>
<g>
</g>
<g>
</g>
</svg>
